# xmcd
#
# Track frame offsets: 
#        150
#        12333
#        24918
#        37983
#        56520
#        67420
#        78806
#        91673
#        109846
#        125109
#        139449
#
# Disc length: 2175 seconds
#
# Revision: 0
# Processed by: cddbd v1.5.2PL0 Copyright (c) Steve Scherf et al.
# Submitted via: ExactAudioCopyFreeDBPlugin 1.0
#
DISCID=90087d0b
DTITLE=Sonny Knight and The Lakers - I'm Still Here
DYEAR=2014
DGENRE=R&B
TTITLE0=Juicy Lucy
TTITLE1=Cave Man
TTITLE2=I'm Still Here, Pt. 1
TTITLE3=I'm Still Here, Pt. 2
TTITLE4=Through With You
TTITLE5=Sonny's Boogaloo
TTITLE6=Hey Girl
TTITLE7=When You're Gone
TTITLE8=Sugar Man
TTITLE9=Baby, Baby, Baby
TTITLE10=Get Up and Dance
EXTD=
EXTT0=
EXTT1=
EXTT2=
EXTT3=
EXTT4=
EXTT5=
EXTT6=
EXTT7=
EXTT8=
EXTT9=
EXTT10=
PLAYORDER=
